<?xml version="1.0" encoding="UTF-8" standalone="no"?>
<!-- Created with Inkscape (http://www.inkscape.org/) -->

<svg
   width="150.00015mm"
   height="149.99962mm"
   viewBox="0 0 150.00015 149.99962"
   version="1.1"
   id="svg5"
   xml:space="preserve"
   inkscape:version="1.2.2 (b0a8486541, 2022-12-01)"
   sodipodi:docname="analise.svg"
   xmlns:inkscape="http://www.inkscape.org/namespaces/inkscape"
   xmlns:sodipodi="http://sodipodi.sourceforge.net/DTD/sodipodi-0.dtd"
   xmlns="http://www.w3.org/2000/svg"
   xmlns:svg="http://www.w3.org/2000/svg"><sodipodi:namedview
     id="namedview7"
     pagecolor="#ffffff"
     bordercolor="#000000"
     borderopacity="0.25"
     inkscape:showpageshadow="2"
     inkscape:pageopacity="0.0"
     inkscape:pagecheckerboard="0"
     inkscape:deskcolor="#d1d1d1"
     inkscape:document-units="mm"
     showgrid="false"
     showguides="false"
     inkscape:zoom="0.47482464"
     inkscape:cx="351.70879"
     inkscape:cy="232.71749"
     inkscape:window-width="1366"
     inkscape:window-height="700"
     inkscape:window-x="0"
     inkscape:window-y="32"
     inkscape:window-maximized="1"
     inkscape:current-layer="layer1" /><defs
     id="defs2" /><g
     inkscape:label="Camada 1"
     inkscape:groupmode="layer"
     id="layer1"
     transform="translate(-42.054988,-74.906977)"><path
       id="path1167"
       style="display:inline;fill:#39474e;fill-opacity:1;stroke-width:0.304985"
       d="m 117.05507,74.906977 c -41.421214,-4.5e-5 -74.999835,33.578343 -75.000082,74.999553 -3.9e-5,41.42142 33.578666,75.00012 75.000082,75.00007 41.42141,4e-5 75.00011,-33.57866 75.00007,-75.00007 -2.5e-4,-41.42121 -33.57886,-74.999592 -75.00007,-74.999553 z"
       sodipodi:nodetypes="ccccc"
       transform="translate(-1.0208333e-6)" /><path
       id="path1163"
       style="display:inline;fill:#ffffff;stroke:none;stroke-width:1.89387;stroke-linecap:round;stroke-linejoin:round"
       d="m 106.59361,104.62943 c -19.075111,-4e-5 -34.53857,15.46343 -34.538549,34.53855 2.8e-4,19.07489 15.463649,34.53802 34.538549,34.53798 6.34657,-0.007 12.56845,-1.76324 17.98249,-5.07492 l 23.89787,23.89786 c 7.36477,7.28795 19.0533,-1.80317 10.68171,-10.68226 l -23.71512,-23.71512 c 3.70737,-5.63022 5.68578,-12.22233 5.69213,-18.96354 3e-5,-19.07532 -15.46378,-34.53889 -34.53908,-34.53855 z m 0,7.75986 c 14.78946,-9e-5 26.77876,11.98921 26.77867,26.77869 9e-5,14.78947 -11.9892,26.77876 -26.77867,26.77867 -14.789278,-2.1e-4 -26.778226,-11.98941 -26.778141,-26.77867 -7.4e-5,-14.78928 11.988863,-26.77848 26.778141,-26.77869 z" /></g></svg>
