<?xml version="1.0" encoding="UTF-8" standalone="no"?>
<!-- Created with Inkscape (http://www.inkscape.org/) -->

<svg
   width="150.00015mm"
   height="149.99962mm"
   viewBox="0 0 150.00015 149.99962"
   version="1.1"
   id="svg5"
   xml:space="preserve"
   inkscape:version="1.2.2 (b0a8486541, 2022-12-01)"
   sodipodi:docname="lupa.svg"
   xmlns:inkscape="http://www.inkscape.org/namespaces/inkscape"
   xmlns:sodipodi="http://sodipodi.sourceforge.net/DTD/sodipodi-0.dtd"
   xmlns="http://www.w3.org/2000/svg"
   xmlns:svg="http://www.w3.org/2000/svg"><sodipodi:namedview
     id="namedview7"
     pagecolor="#ffffff"
     bordercolor="#000000"
     borderopacity="0.25"
     inkscape:showpageshadow="2"
     inkscape:pageopacity="0.0"
     inkscape:pagecheckerboard="0"
     inkscape:deskcolor="#d1d1d1"
     inkscape:document-units="mm"
     showgrid="false"
     showguides="false"
     inkscape:zoom="0.23741232"
     inkscape:cx="358.02692"
     inkscape:cy="532.82829"
     inkscape:window-width="1366"
     inkscape:window-height="700"
     inkscape:window-x="0"
     inkscape:window-y="32"
     inkscape:window-maximized="1"
     inkscape:current-layer="layer1" /><defs
     id="defs2" /><g
     inkscape:label="Camada 1"
     inkscape:groupmode="layer"
     id="layer1"
     transform="translate(-42.054988,-74.906977)"><path
       id="path280"
       style="fill:#39474e;fill-opacity:1;stroke-width:0.304985"
       d="M 117.05507,74.906977 A 75,75 0 0 0 42.054988,149.90653 75,75 0 0 0 117.05507,224.9066 75,75 0 0 0 192.05514,149.90653 75,75 0 0 0 117.05507,74.906977 Z m -9.88053,32.237823 a 32.619659,32.619659 0 0 1 32.62023,32.61971 32.619659,32.619659 0 0 1 -5.3759,17.91002 l 22.3976,22.3976 c 7.90651,8.3858 -3.13266,16.97186 -10.08828,10.08879 l -22.5702,-22.5702 a 32.619659,32.619659 0 0 1 -16.98345,4.79299 32.619659,32.619659 0 0 1 -32.619727,-32.6192 32.619659,32.619659 0 0 1 32.619727,-32.61971 z m 0,7.32875 a 25.290822,25.290822 0 0 0 -25.290459,25.29096 25.290822,25.290822 0 0 0 25.290459,25.29097 25.290822,25.290822 0 0 0 25.29096,-25.29097 25.290822,25.290822 0 0 0 -25.29096,-25.29096 z" /></g></svg>
