<?xml version="1.0" encoding="UTF-8" standalone="no"?>
<!-- Created with Inkscape (http://www.inkscape.org/) -->

<svg
   width="150mm"
   height="150mm"
   viewBox="0 0 150 150"
   version="1.1"
   id="svg5"
   xml:space="preserve"
   inkscape:version="1.2.2 (b0a8486541, 2022-12-01)"
   sodipodi:docname="atendimento.svg"
   xmlns:inkscape="http://www.inkscape.org/namespaces/inkscape"
   xmlns:sodipodi="http://sodipodi.sourceforge.net/DTD/sodipodi-0.dtd"
   xmlns="http://www.w3.org/2000/svg"
   xmlns:svg="http://www.w3.org/2000/svg"><sodipodi:namedview
     id="namedview7"
     pagecolor="#ffffff"
     bordercolor="#000000"
     borderopacity="0.25"
     inkscape:showpageshadow="2"
     inkscape:pageopacity="0.0"
     inkscape:pagecheckerboard="0"
     inkscape:deskcolor="#d1d1d1"
     inkscape:document-units="mm"
     showgrid="false"
     showguides="false"
     inkscape:zoom="0.23741232"
     inkscape:cx="219.02823"
     inkscape:cy="520.19205"
     inkscape:window-width="1366"
     inkscape:window-height="700"
     inkscape:window-x="0"
     inkscape:window-y="32"
     inkscape:window-maximized="1"
     inkscape:current-layer="layer1" /><defs
     id="defs2" /><g
     inkscape:label="Camada 1"
     inkscape:groupmode="layer"
     id="layer1"
     transform="translate(-36.824623,-73.31311)"><path
       id="path280"
       style="fill:#39474e;fill-opacity:1;stroke-width:0.304985"
       d="M 111.8247 73.31311 A 75 75 0 0 0 36.824623 148.31318 A 75 75 0 0 0 111.8247 223.31326 A 75 75 0 0 0 186.82477 148.31318 A 75 75 0 0 0 111.8247 73.31311 z M 111.97714 93.436429 C 118.58236 93.414837 124.01073 94.913669 129.61224 98.274894 C 138.97883 103.89538 145.33373 113.86504 146.3306 124.50327 C 146.49332 126.23965 146.52302 126.30473 147.54861 127.16202 C 148.12686 127.64536 148.84075 128.49136 149.13508 129.04201 C 149.65585 130.01629 149.67045 130.23859 149.67045 137.32574 C 149.67045 143.9737 149.63144 144.68174 149.225 145.44462 C 148.59654 146.62456 147.67674 147.55623 146.56624 148.13697 C 145.32182 148.78774 142.63085 148.85366 141.4787 148.26151 C 140.69175 147.85707 140.68454 147.85875 139.34808 148.71368 C 136.1335 150.77 131.07376 152.44885 126.50804 152.9744 C 125.41639 153.10004 124.90516 153.29657 124.35933 153.80019 C 123.17152 154.89615 122.76835 154.99591 119.53947 154.99495 C 116.96364 154.99424 116.36257 154.92296 115.74177 154.54433 L 115.74125 154.54433 C 113.97814 153.46919 113.42854 151.47265 114.43901 149.81542 C 115.24946 148.48625 115.93529 148.20979 118.67079 148.10854 C 121.99128 147.98561 123.12089 148.18115 124.11232 149.05164 L 124.92054 149.76116 L 127.14676 149.39891 C 130.47662 148.85655 133.31321 147.97049 135.83305 146.68538 C 138.38553 145.38362 138.14587 146.32049 138.10268 137.81512 L 138.06444 130.3365 L 138.70264 129.03271 C 139.10501 128.21024 139.67877 127.49536 140.25759 127.09536 C 141.31369 126.36553 141.32181 126.31111 140.82448 123.24443 C 139.07295 112.44408 131.13414 103.26755 120.69857 99.98125 C 113.48185 97.708602 105.55747 98.311934 98.857529 101.6442 C 89.797244 106.15039 83.480649 115.1788 82.58152 124.90893 L 82.438376 126.46129 L 83.365451 127.09071 C 83.945702 127.48474 84.529101 128.19475 84.924529 128.98826 L 85.556015 130.2564 L 85.551365 137.31334 C 85.546365 145.12516 85.487015 145.4774 83.938026 147.02644 C 82.742138 148.22234 81.59607 148.66138 79.706243 148.64805 C 77.244646 148.63075 75.580567 147.62212 74.420778 145.44462 C 74.014457 144.68174 73.975327 143.9737 73.975327 137.32574 C 73.975327 130.23859 73.989845 130.01629 74.510695 129.04201 C 74.805023 128.49136 75.518923 127.64536 76.097161 127.16202 C 77.12276 126.30473 77.152456 126.23965 77.315175 124.50327 C 78.396134 112.96786 85.869643 102.17348 96.356907 97.00107 C 101.26666 94.579552 105.03582 93.645674 110.63976 93.461234 C 111.09096 93.446383 111.53679 93.437869 111.97714 93.436429 z M 112.06964 104.4156 C 124.26208 104.31167 132.81631 111.86625 134.51323 124.36632 C 134.88864 127.1317 134.70668 132.68846 134.15512 135.29641 C 133.49131 138.43525 131.05334 145.44462 130.62562 145.44462 C 130.58112 145.44462 129.55605 145.66034 128.3472 145.92418 L 126.14889 146.40426 L 124.89573 145.74538 C 123.72162 145.1282 123.42096 145.08153 120.13633 145.00537 C 115.98881 144.90927 114.61481 145.20644 113.06028 146.53706 C 111.52128 147.85439 110.77749 149.48547 110.78135 151.53366 C 110.78435 152.52247 110.93788 153.55995 111.16065 154.07407 C 111.7296 155.38709 113.23271 156.91501 114.56871 157.53846 C 115.65454 158.04517 116.09231 158.096 119.40408 158.09812 L 123.04572 158.10122 L 123.04572 159.78432 C 123.04572 161.74313 123.34299 162.44249 124.69471 163.66367 C 125.91889 164.76964 127.74068 165.68639 131.97179 167.32546 C 136.37356 169.03064 142.43617 172.01931 145.13481 173.81447 C 151.8374 178.27313 154.3176 182.16573 154.32443 188.23581 C 154.32943 192.14158 153.0955 194.71082 150.16654 196.89678 C 145.75594 200.18851 137.36405 202.21495 124.95568 202.98478 C 120.46397 203.26345 102.39668 203.25656 98.092718 202.97445 L 98.092718 202.97393 C 90.350683 202.46665 83.254471 201.14501 78.766766 199.37467 C 71.148794 196.36947 68.063918 191.25949 69.791086 184.50632 C 70.050886 183.49054 70.557766 182.10353 70.917116 181.42382 C 71.795905 179.76159 75.159659 176.4566 77.795766 174.66558 C 82.093711 171.74549 89.926102 167.53241 94.13482 165.87645 C 95.372629 165.38941 96.876949 164.74049 97.477768 164.43468 C 100.06675 163.11695 101.37694 160.74624 100.85689 158.32136 C 100.51334 156.71947 100.25373 156.25751 97.975412 153.19661 C 93.566017 147.27256 91.212251 142.30916 89.798651 135.95476 C 89.10962 132.85747 89.029821 125.09212 89.658091 122.28273 C 92.10109 111.3588 99.677602 104.99087 110.87798 104.44919 C 111.27875 104.42981 111.67634 104.41896 112.06964 104.4156 z " /></g></svg>
