<?xml version="1.0" encoding="UTF-8" standalone="no"?>
<!-- Created with Inkscape (http://www.inkscape.org/) -->

<svg
   width="150mm"
   height="150mm"
   viewBox="0 0 150 150"
   version="1.1"
   id="svg5"
   xml:space="preserve"
   inkscape:version="1.2.2 (b0a8486541, 2022-12-01)"
   sodipodi:docname="remediacao.svg"
   xmlns:inkscape="http://www.inkscape.org/namespaces/inkscape"
   xmlns:sodipodi="http://sodipodi.sourceforge.net/DTD/sodipodi-0.dtd"
   xmlns="http://www.w3.org/2000/svg"
   xmlns:svg="http://www.w3.org/2000/svg"><sodipodi:namedview
     id="namedview7"
     pagecolor="#ffffff"
     bordercolor="#000000"
     borderopacity="0.25"
     inkscape:showpageshadow="2"
     inkscape:pageopacity="0.0"
     inkscape:pagecheckerboard="0"
     inkscape:deskcolor="#d1d1d1"
     inkscape:document-units="mm"
     showgrid="false"
     showguides="false"
     inkscape:zoom="0.67150344"
     inkscape:cx="220.40096"
     inkscape:cy="295.60534"
     inkscape:window-width="1366"
     inkscape:window-height="700"
     inkscape:window-x="0"
     inkscape:window-y="32"
     inkscape:window-maximized="1"
     inkscape:current-layer="layer1" /><defs
     id="defs2" /><g
     inkscape:label="Camada 1"
     inkscape:groupmode="layer"
     id="layer1"
     transform="translate(-36.824623,-73.31311)"><path
       id="path1530"
       style="fill:#39474e;fill-opacity:1;stroke-width:0.304985"
       d="m 111.8247,73.31311 c -41.421414,-4.3e-5 -75.000116,33.57866 -75.000077,75.00007 -4.4e-5,41.42142 33.578659,75.00012 75.000077,75.00008 41.42141,4e-5 75.00011,-33.57867 75.00007,-75.00008 4e-5,-41.42141 -33.57866,-75.000109 -75.00007,-75.00007 z"
       sodipodi:nodetypes="ccccc" /><path
       id="path1527"
       style="display:inline;fill:#ffffff;stroke-width:2.32089;stroke-linecap:round;stroke-linejoin:round"
       d="m 142.35358,100.36779 v 5.2e-4 c -0.57558,0.0106 -1.25968,0.0787 -2.15232,0.19068 -7.27249,0.91189 -13.78101,4.90856 -17.8201,10.94714 -1.43233,2.14135 -2.088,3.44722 -2.9099,5.80843 -0.69063,1.98415 -1.14073,4.09519 -1.35392,6.33191 l -0.0816,0.85783 -1.00614,0.99994 v -4.77542 -7.11533 a 0.97259728,0.97259728 0 0 0 -0.28526,-0.68729 l -0.47025,-0.47078 c -0.23061,-0.23064 -0.4908,-0.46225 -0.86765,-0.59014 -0.37685,-0.12788 -0.752,-0.0942 -1.05833,-0.0351 -0.29514,0.057 -0.71403,0.0808 -1.15446,0.44545 -0.44041,0.36461 -0.61467,0.89791 -0.70486,1.48415 -0.18039,1.17247 -0.15658,3.06083 -0.15658,6.99647 v 4.74958 l -0.97617,-0.97255 -0.1757,-1.61696 C 109.852,110.6811 99.988258,101.21959 87.740428,100.43759 c -0.84454,-0.0539 -1.31979,-0.0894 -1.790588,-0.031 -0.470801,0.0584 -0.916337,0.31115 -1.187525,0.5271 -0.266402,0.21213 -0.623316,0.57667 -0.756026,1.02939 -0.132707,0.45273 -0.115589,0.83219 -0.115238,1.45108 0.0023,4.06597 1.472385,8.89416 3.795117,12.5646 3.974609,6.28083 10.152463,10.36487 17.476452,11.55279 0.94789,0.15376 1.94896,0.28264 2.54662,0.28318 0.29476,3e-4 0.078,-0.0926 0.3886,0.14625 0.31053,0.23884 0.93744,0.84669 2.09031,2.00194 l 2.14406,2.14871 v 7.25795 6.72621 c -0.16814,0.0162 -0.30907,0.0204 -0.52917,0.0491 -0.40607,0.053 -0.88334,0.12537 -1.34565,0.20516 -8.16063,1.40835 -15.150642,6.77365 -18.591632,14.27509 l -0.613399,1.33791 -0.611333,0.1912 c -2.280548,0.71572 -4.566278,2.09715 -6.373254,3.83439 l -0.454753,0.43718 -2.15439,-0.0429 -1.646411,-0.0331 -0.01395,-0.28319 c -0.02276,-0.48605 -0.05906,-0.86755 -0.161747,-1.23817 -0.102685,-0.37061 -0.302988,-0.72869 -0.545186,-0.9865 a 0.97259728,0.97259728 0 0 0 -0.0021,-0.002 c -0.103897,-0.11049 -0.327203,-0.33351 -0.626835,-0.46302 -0.299631,-0.1295 -0.59087,-0.17116 -0.966866,-0.20102 -0.751987,-0.0597 -1.945348,-0.0568 -4.334102,-0.0568 -2.294354,0 -3.496617,0.003 -4.255554,0.0568 -0.379471,0.0268 -0.659473,0.0618 -0.947229,0.16227 -0.287757,0.10046 -0.554269,0.30622 -0.681612,0.43356 -0.129104,0.12909 -0.410469,0.58878 -0.480591,1.00201 -0.07012,0.41323 -0.09932,0.94811 -0.12299,1.9296 -0.04734,1.96296 -0.04909,5.6715 -0.04909,12.9744 v 14.67249 a 68.497711,62.439377 0 0 0 2.57297,1.85673 c 0.754579,0.0499 1.886691,0.0527 4.028694,0.0527 h 4.664315 a 0.97259728,0.97259728 0 0 0 0.687297,-0.28474 l 0.449068,-0.44958 c 0.245418,-0.24539 0.533818,-0.64578 0.636654,-1.08572 0.102836,-0.43994 0.09974,-0.85676 0.09974,-1.52963 v -0.50384 h 1.974557 2.802929 l 4.486548,1.35547 c 8.387204,2.53296 7.398812,2.36933 15.149982,2.45515 a 0.97259728,0.97259728 0 0 0 0.014,0 l 12.01529,-0.0346 c 0.23107,0.0454 0.3253,0.0278 0.55862,0.0367 0.27778,0.0106 0.63515,0.0194 1.05317,0.0232 0.83601,0.008 1.91538,0.002 3.04839,-0.0176 1.93668,-0.0338 2.98467,-0.0554 3.77548,-0.13643 0.7908,-0.0811 1.32585,-0.24255 1.98231,-0.47852 0.84008,-0.30197 1.86298,-0.79142 2.52181,-1.22886 0.35006,-0.23243 0.8325,-0.63837 1.63866,-1.31414 0.80617,-0.67578 1.86358,-1.57731 3.08611,-2.63084 2.44506,-2.10707 5.55505,-4.8215 8.63669,-7.53339 3.08164,-2.71192 6.13422,-5.42017 8.46666,-7.51737 1.16622,-1.04862 2.15107,-1.94456 2.87321,-2.6138 0.36108,-0.33461 0.6558,-0.61357 0.8785,-0.82992 0.2227,-0.21635 0.32704,-0.29419 0.50023,-0.52917 1.06763,-1.44853 1.49362,-3.06318 1.38079,-5.06429 -0.11253,-1.99617 -0.77145,-3.48652 -2.16214,-4.87722 -1.77194,-1.77192 -4.21396,-2.56156 -6.69313,-2.16576 -0.89153,0.14233 -1.71436,0.41056 -2.66805,1.00769 -0.95372,0.59713 -2.08061,1.50384 -3.88504,3.01532 -0.89217,0.74733 -1.71115,1.42083 -2.32234,1.91616 -0.64012,-2.73636 -2.11424,-6.29426 -3.85506,-8.62893 -2.02779,-2.71958 -4.32934,-4.89191 -6.92981,-6.61303 -1.16421,-0.77052 -3.84687,-2.13528 -5.78518,-2.76779 -0.87708,-0.28621 -2.04823,-0.57035 -3.15432,-0.79272 -0.92553,-0.18608 -1.66622,-0.2822 -2.32234,-0.32453 v -6.7479 -7.25796 l 2.14457,-2.14819 c 1.15262,-1.155 1.78113,-1.76085 2.09186,-1.99988 0.31072,-0.23903 0.092,-0.14995 0.38654,-0.15037 4.04902,-0.006 9.74484,-2.01058 13.32425,-4.62504 l -0.0253,0.008 a 0.97259728,0.97259728 0 0 0 0.045,-0.0243 c 1.91287,-1.47397 3.91969,-3.13067 5.9123,-5.92936 1.03553,-1.37564 2.62572,-4.47463 3.21686,-6.21874 0.78309,-2.31038 1.17796,-4.33762 1.28881,-6.62492 a 0.97259728,0.97259728 0 0 0 0.002,-0.0398 c 0,0 0.004,-0.44244 -0.0176,-0.9493 -0.011,-0.25344 -0.0278,-0.52442 -0.0589,-0.78341 -0.0311,-0.25898 -0.0429,-0.47289 -0.19327,-0.80254 -0.19579,-0.42904 -0.19327,-0.42943 -0.19327,-0.42943 a 0.97259728,0.97259728 0 0 0 -0.31057,-0.42426 c -0.4482,-0.35253 -1.06008,-0.5548 -1.74615,-0.59376 v 5.1e-4 c -0.17151,-0.01 -0.35126,-0.0121 -0.54312,-0.009 z m -1.67741,4.85913 c -0.0201,0.1699 -0.0305,0.30069 -0.0569,0.4899 -0.38641,2.76221 -1.47905,5.64188 -3.14606,8.24239 -0.001,0.002 -0.003,0.004 -0.004,0.006 -1.12417,1.72412 -2.99485,3.60111 -5.50767,5.60327 -0.77828,0.52956 -2.11687,1.30386 -2.83239,1.64073 -0.45825,0.21573 -1.17825,0.4607 -1.84743,0.69918 0.6113,-0.63135 1.02449,-1.07455 2.00401,-2.05465 2.15339,-2.1547 3.28531,-3.29328 3.92741,-4.03128 0.32105,-0.36901 0.53292,-0.63853 0.68575,-0.96273 0.15283,-0.32421 0.18182,-0.73559 0.16019,-0.9555 -0.13294,-1.35403 -1.40763,-2.38776 -2.75797,-2.05465 -0.28754,0.0709 -0.37176,0.15025 -0.49609,0.23254 -0.12434,0.0823 -0.2475,0.17572 -0.38861,0.28887 -0.28223,0.22631 -0.6301,0.52985 -1.05678,0.92036 -0.85335,0.78101 -2.02016,1.9068 -3.50004,3.37654 -0.71977,0.71482 -1.11515,1.10182 -1.62678,1.60765 2.61295,-6.89244 8.79142,-11.9882 16.26567,-13.02918 0.0685,-0.01 0.11124,-0.0113 0.17726,-0.0196 z m -51.972543,0.002 c 0.285643,0.0424 0.549101,0.0782 0.900203,0.14418 1.0768,0.20264 2.35134,0.50287 3.03134,0.7307 5.00624,1.67724 9.12373,5.18769 11.71298,10.00559 0.28304,0.52668 0.45899,1.3025 0.76946,2.12132 -0.57901,-0.56849 -0.68818,-0.65215 -1.61127,-1.57045 -2.46097,-2.44822 -3.728216,-3.71588 -4.699454,-4.38474 -0.485618,-0.33443 -0.993365,-0.57946 -1.581815,-0.50385 -0.588453,0.0756 -0.946064,0.42826 -1.201477,0.68368 -0.250709,0.25071 -0.594659,0.54144 -0.724504,1.12293 -0.129845,0.58148 0.101896,1.14276 0.425814,1.62316 0.647832,0.96081 1.891434,2.17876 4.363556,4.65811 0.83872,0.84117 1.33805,1.35217 1.89808,1.92185 -5.817356,-2.19876 -10.44665,-6.80151 -12.431285,-12.72842 -0.202007,-0.60327 -0.498851,-1.85915 -0.703317,-2.92799 -0.06646,-0.34744 -0.103866,-0.61078 -0.148311,-0.89607 z m 26.018053,45.46596 c 1.72835,0.007 3.49213,0.22532 5.26117,0.66869 1.19962,0.30065 2.46261,0.72526 4.15996,1.66398 2.37761,1.31501 3.8523,2.25532 6.05699,4.67362 2.23949,2.45649 2.91347,4.20187 3.82406,6.78357 0.32638,0.92537 0.61854,2.05945 0.7891,2.96467 0.0853,0.45261 0.14114,0.85221 0.15813,1.11518 0.003,0.0472 -7.1e-4,0.055 0,0.092 -0.11158,0.10059 -0.25769,0.23022 -0.43357,0.38241 -0.36696,0.31754 -0.84053,0.71924 -1.31258,1.11363 -0.39831,0.33279 -0.76953,0.63629 -1.09967,0.90433 -0.77473,-1.87165 -2.47715,-3.56609 -4.43333,-4.24211 -0.51332,-0.1774 -1.1081,-0.28017 -2.33784,-0.32815 -1.22975,-0.048 -3.18123,-0.057 -6.63525,-0.061 -2.11312,-0.003 -4.17956,-0.0274 -5.80068,-0.0625 -1.62113,-0.0351 -2.91959,-0.10384 -3.05253,-0.12299 -1.29579,-0.18651 -2.64125,-0.75579 -4.28914,-1.88464 -2.65151,-1.81637 -5.839386,-2.8336 -8.874912,-2.96881 3.485842,-6.28333 9.536112,-10.10051 16.304432,-10.6288 0.56719,-0.0443 1.13953,-0.0653 1.71566,-0.0631 z m 34.40772,13.12271 c 0.12741,-0.009 0.25228,-0.008 0.37672,0.005 0.49773,0.0509 0.9845,0.27979 1.56631,0.70125 0.74292,0.53816 1.07221,1.19906 1.07642,2.37918 0.004,1.11783 -0.17679,1.50089 -1.28933,2.57194 -0.13166,0.12676 -1.72437,1.55056 -3.96255,3.52381 -2.23813,1.97326 -5.20659,4.57943 -8.35969,7.33961 -9.9247,8.68778 -11.676,10.10049 -12.62869,10.56266 l -1.17977,0.57413 -3.82044,0.047 c -1.1064,0.0137 -2.22052,0.0209 -3.08973,0.031 -0.4346,0.005 -0.80702,0.01 -1.09348,0.0176 -0.14323,0.004 -0.26454,0.01 -0.36742,0.0155 -0.0367,0.002 -0.0877,0.0128 -0.1173,0.0139 h -0.004 l -10.87479,-0.0315 a 0.97259728,0.97259728 0 0 0 -0.002,0 c -1.71718,-0.002 -3.35658,-0.0256 -4.65397,-0.0625 -1.297418,-0.0369 -2.323834,-0.10118 -2.539385,-0.13436 -0.199889,-0.0308 -1.241213,-0.28082 -2.511474,-0.62735 -1.270264,-0.34655 -2.848437,-0.79751 -4.419886,-1.26917 l -5.742285,-1.72496 a 0.97259728,0.97259728 0 0 0 -0.279053,-0.0408 h -3.113505 -2.134753 l 0.04289,-8.33592 0.04134,-8.3597 2.238106,-0.0346 3.189469,-0.0512 a 0.97259728,0.97259728 0 0 0 0.646472,-0.25942 l 1.328085,-1.23455 c 2.34455,-2.17819 4.780081,-3.24188 7.730277,-3.40444 2.962112,-0.16323 5.394682,0.56334 8.236712,2.50011 1.40313,0.9562 2.566,1.5408 4.02146,2.01383 0.34729,0.11286 0.59117,0.1191 1.04076,0.15399 0.44959,0.0349 1.04476,0.0648 1.81849,0.092 1.5475,0.0543 3.80487,0.0973 6.93963,0.13487 4.28443,0.0514 6.49835,0.0806 7.67757,0.14263 0.5896,0.031 0.91483,0.0726 1.08004,0.10904 0.16521,0.0365 0.17474,0.047 0.33383,0.13281 1.37394,0.74097 1.8379,1.55191 1.75028,2.92798 -0.0727,1.14134 -0.47401,1.79654 -1.62884,2.51923 l -0.64648,0.40462 -9.52758,0.0899 c -4.71733,0.0442 -7.16216,0.0688 -8.50801,0.12868 -0.67293,0.03 -1.0641,0.0601 -1.41593,0.14262 -0.35184,0.0826 -0.78521,0.39768 -0.91416,0.57413 -0.75413,1.03195 -0.59717,2.47305 0.41807,3.27163 0.13027,0.10246 0.4632,0.31748 0.82062,0.40205 0.35742,0.0846 0.75291,0.11331 1.41955,0.13487 1.33327,0.0431 3.75783,0.0283 8.59586,0 8.73149,-0.0511 9.89527,-0.0494 10.90837,-0.44132 1.53888,-0.5953 2.93936,-1.80862 4.02715,-3.38273 0.70754,-1.02386 1.73024,-1.95934 8.2889,-7.43159 2.07196,-1.72875 4.02421,-3.33435 5.49837,-4.52376 0.73707,-0.59471 1.35593,-1.08554 1.80454,-1.4335 0.22431,-0.17399 0.40707,-0.31241 0.53537,-0.40618 0.1283,-0.0938 0.29386,-0.17444 0.11886,-0.092 0.46844,-0.22074 0.87189,-0.34746 1.25418,-0.37569 z m -77.60767,4.00079 h 1.873271 1.871203 v 11.87111 11.87318 H 73.395001 71.52173 v -11.87318 z" /></g></svg>
