<?xml version="1.0" encoding="UTF-8" standalone="no"?>
<!-- Created with Inkscape (http://www.inkscape.org/) -->

<svg
   width="150mm"
   height="150mm"
   viewBox="0 0 150 150"
   version="1.1"
   id="svg5"
   xml:space="preserve"
   inkscape:version="1.2.2 (b0a8486541, 2022-12-01)"
   sodipodi:docname="recuperacao.svg"
   xmlns:inkscape="http://www.inkscape.org/namespaces/inkscape"
   xmlns:sodipodi="http://sodipodi.sourceforge.net/DTD/sodipodi-0.dtd"
   xmlns="http://www.w3.org/2000/svg"
   xmlns:svg="http://www.w3.org/2000/svg"><sodipodi:namedview
     id="namedview7"
     pagecolor="#ffffff"
     bordercolor="#000000"
     borderopacity="0.25"
     inkscape:showpageshadow="2"
     inkscape:pageopacity="0.0"
     inkscape:pagecheckerboard="0"
     inkscape:deskcolor="#d1d1d1"
     inkscape:document-units="mm"
     showgrid="false"
     showguides="false"
     inkscape:zoom="0.67150344"
     inkscape:cx="224.86854"
     inkscape:cy="294.11614"
     inkscape:window-width="1366"
     inkscape:window-height="700"
     inkscape:window-x="0"
     inkscape:window-y="32"
     inkscape:window-maximized="1"
     inkscape:current-layer="layer1" /><defs
     id="defs2" /><g
     inkscape:label="Camada 1"
     inkscape:groupmode="layer"
     id="layer1"
     transform="translate(-36.824623,-73.31311)"><path
       id="path280"
       style="fill:#39474e;fill-opacity:1;stroke-width:0.304985"
       d="M 111.8247 73.31311 A 75 75 0 0 0 36.824623 148.31318 A 75 75 0 0 0 111.8247 223.31326 A 75 75 0 0 0 186.82477 148.31318 A 75 75 0 0 0 111.8247 73.31311 z M 142.35358 100.36779 C 142.54544 100.36449 142.72519 100.36657 142.8967 100.37657 L 142.8967 100.37606 C 143.58277 100.41502 144.19465 100.61729 144.64285 100.96982 A 0.97259728 0.97259728 0 0 1 144.95342 101.39408 C 144.95342 101.39408 144.9509 101.39447 145.14669 101.82351 C 145.29706 102.15316 145.30886 102.36707 145.33996 102.62605 C 145.37106 102.88504 145.38787 103.15602 145.39887 103.40946 C 145.42047 103.91632 145.41644 104.35876 145.41644 104.35876 A 0.97259728 0.97259728 0 0 1 145.41438 104.39855 C 145.30353 106.68585 144.90866 108.71309 144.12557 111.02347 C 143.53443 112.76758 141.94424 115.86657 140.90871 117.24221 C 138.9161 120.0409 136.90928 121.6976 134.99641 123.17157 A 0.97259728 0.97259728 0 0 1 134.95145 123.19585 L 134.97677 123.18759 C 131.39735 125.80206 125.70154 127.80663 121.65252 127.81263 C 121.35798 127.81305 121.5767 127.72397 121.26598 127.963 C 120.95525 128.20203 120.32674 128.80788 119.17412 129.96288 L 117.02955 132.11107 L 117.02955 139.36903 L 117.02955 146.11693 C 117.68567 146.15926 118.42636 146.25538 119.35189 146.44146 C 120.45799 146.66383 121.62912 146.94797 122.50621 147.23418 C 124.44452 147.86669 127.12718 149.23145 128.29139 150.00197 C 130.89186 151.72309 133.19341 153.89542 135.2212 156.615 C 136.96202 158.94967 138.43614 162.50756 139.07626 165.24393 C 139.68745 164.7486 140.50643 164.0751 141.3986 163.32777 C 143.20303 161.81629 144.32992 160.90958 145.28364 160.31245 C 146.23734 159.71532 147.06016 159.44709 147.95169 159.30476 C 150.43086 158.90896 152.87288 159.6986 154.64482 161.47052 C 156.03551 162.86122 156.69443 164.35157 156.80696 166.34774 C 156.91979 168.34885 156.4938 169.9635 155.42617 171.41203 C 155.25298 171.64701 155.14864 171.72485 154.92594 171.9412 C 154.70324 172.15755 154.40852 172.43651 154.04744 172.77112 C 153.3253 173.44036 152.34045 174.3363 151.17423 175.38492 C 148.84179 177.48213 145.78922 180.19037 142.70757 182.90229 C 139.62593 185.61419 136.51594 188.32861 134.07088 190.43568 C 132.84835 191.48921 131.79094 192.39074 130.98477 193.06652 C 130.17861 193.74229 129.69617 194.14823 129.34611 194.38066 C 128.68728 194.8181 127.66438 195.30755 126.8243 195.60952 C 126.16784 195.84549 125.63279 196.00694 124.84199 196.08804 C 124.05118 196.16907 123.00319 196.19067 121.06651 196.22447 C 119.9335 196.24407 118.85413 196.25004 118.01812 196.24204 C 117.6001 196.23824 117.24273 196.22939 116.96495 196.21879 C 116.73163 196.20989 116.6374 196.2275 116.40633 196.1821 L 104.39104 196.21672 A 0.97259728 0.97259728 0 0 1 104.37709 196.21672 C 96.625914 196.1309 97.614321 196.29453 89.227109 193.76157 L 84.740561 192.4061 L 81.937632 192.4061 L 79.963075 192.4061 L 79.963075 192.90994 C 79.963075 193.58281 79.966176 193.99963 79.86334 194.43957 C 79.760504 194.87951 79.472104 195.2799 79.226686 195.52529 L 78.777618 195.97487 A 0.97259728 0.97259728 0 0 1 78.090321 196.25961 L 73.426006 196.25961 C 71.204972 196.25961 70.041664 196.25888 69.289308 196.20328 C 68.913131 196.17549 68.626443 196.13482 68.346213 196.04102 C 68.065985 195.94721 67.825238 195.78622 67.680104 195.67205 L 67.195379 195.29119 A 0.97259728 0.97259728 0 0 1 66.824342 194.52742 L 66.824342 179.67768 C 66.824342 172.37478 66.826095 168.66625 66.873435 166.70328 C 66.897105 165.72179 66.926305 165.18691 66.996425 164.77368 C 67.066547 164.36045 67.347912 163.90076 67.477016 163.77167 C 67.60436 163.64433 67.870871 163.43857 68.158628 163.33811 C 68.446385 163.23764 68.726386 163.20264 69.105857 163.17584 C 69.864795 163.12204 71.067055 163.119 73.361411 163.119 C 75.750167 163.119 76.943525 163.11614 77.695513 163.17584 C 78.071509 163.2057 78.362747 163.24736 78.662379 163.37686 C 78.962011 163.50637 79.185316 163.72939 79.289214 163.83988 A 0.97259728 0.97259728 0 0 1 79.291282 163.84195 C 79.533481 164.09976 79.733783 164.45784 79.836468 164.82845 C 79.939155 165.19907 79.975455 165.58057 79.998215 166.06662 L 80.012168 166.34981 L 81.658579 166.38288 L 83.812969 166.42577 L 84.267722 165.98859 C 86.0747 164.25135 88.360425 162.86992 90.640976 162.1542 L 91.252309 161.963 L 91.865708 160.62509 C 95.306702 153.12364 102.2967 147.75836 110.45734 146.35 C 110.91965 146.27021 111.39692 146.19784 111.80299 146.14484 C 112.02309 146.11614 112.16402 146.11195 112.33216 146.09575 L 112.33216 139.36954 L 112.33216 132.11159 L 110.1881 129.96288 C 109.03523 128.80763 108.40832 128.19978 108.09779 127.96094 C 107.78718 127.72209 108.00396 127.81499 107.70919 127.81469 C 107.11153 127.81415 106.11046 127.68527 105.16257 127.53151 C 97.838573 126.34359 91.660731 122.25955 87.686118 115.97872 C 85.363384 112.30827 83.893301 107.4801 83.891001 103.41412 C 83.89065 102.79523 83.873532 102.41577 84.006239 101.96304 C 84.138949 101.51032 84.495862 101.14578 84.762265 100.93365 C 85.033453 100.7177 85.478989 100.46495 85.94979 100.40655 C 86.420589 100.34815 86.895837 100.38365 87.740378 100.43755 C 99.98822 101.21955 109.85195 110.68104 111.18029 122.91628 L 111.35599 124.53324 L 112.33216 125.50579 L 112.33216 120.75621 C 112.33216 116.82057 112.30835 114.93221 112.48874 113.75974 C 112.57893 113.1735 112.75318 112.6402 113.1936 112.27559 C 113.63403 111.91094 114.05292 111.88714 114.34806 111.83014 C 114.65439 111.77104 115.02954 111.7374 115.40639 111.86528 C 115.78324 111.99317 116.04343 112.22478 116.27404 112.45542 L 116.74429 112.9262 A 0.97259728 0.97259728 0 0 1 117.02955 113.61349 L 117.02955 120.72882 L 117.02955 125.50424 L 118.03569 124.5043 L 118.11734 123.64647 C 118.33053 121.40975 118.78063 119.29871 119.47126 117.31456 C 120.29316 114.95335 120.94883 113.64748 122.38116 111.50613 C 126.42026 105.46755 132.92876 101.47088 140.20126 100.55899 C 141.0939 100.44701 141.778 100.37891 142.35358 100.36831 L 142.35358 100.36779 z M 140.67617 105.22692 C 140.61015 105.23526 140.56742 105.23659 140.49891 105.24656 C 133.02465 106.28754 126.84619 111.38329 124.23324 118.27574 C 124.74487 117.76991 125.14025 117.38291 125.86002 116.66809 C 127.33991 115.19835 128.50671 114.07256 129.36006 113.29155 C 129.78674 112.90104 130.13461 112.5975 130.41684 112.37119 C 130.55795 112.25804 130.68111 112.16462 130.80545 112.08232 C 130.92978 112.00003 131.014 111.92068 131.30154 111.84978 C 132.65188 111.51667 133.92657 112.5504 134.05951 113.90443 C 134.08114 114.12434 134.05215 114.53572 133.89932 114.85993 C 133.74649 115.18413 133.53462 115.45365 133.21357 115.82266 C 132.57147 116.56066 131.43955 117.69924 129.28616 119.85394 C 128.30664 120.83404 127.89345 121.27724 127.28215 121.90859 C 127.95133 121.67011 128.67133 121.42514 129.12958 121.20941 C 129.8451 120.87254 131.18369 120.09824 131.96197 119.56868 C 134.47479 117.56651 136.34547 115.68953 137.46964 113.96541 C 137.47064 113.96341 137.47226 113.96121 137.47326 113.95921 C 139.14027 111.3587 140.23291 108.47904 140.61932 105.71682 C 140.64572 105.52761 140.65607 105.39682 140.67617 105.22692 z M 88.703627 105.22899 C 88.748072 105.51428 88.785478 105.77762 88.851938 106.12506 C 89.056404 107.1939 89.353248 108.44978 89.555255 109.05305 C 91.539892 114.97997 96.169181 119.58271 101.98654 121.78147 C 101.42651 121.21179 100.92718 120.70079 100.08846 119.85962 C 97.616334 117.38026 96.372737 116.16232 95.724904 115.20151 C 95.400986 114.72111 95.169245 114.15983 95.29909 113.57835 C 95.428935 112.99686 95.772885 112.70613 96.023594 112.45542 C 96.279008 112.2 96.636618 111.84734 97.225071 111.77174 C 97.813522 111.69613 98.321267 111.94116 98.806886 112.27559 C 99.778125 112.94445 101.04537 114.2121 103.50634 116.66033 C 104.42943 117.57863 104.5386 117.66229 105.11761 118.23078 C 104.80714 117.41196 104.63119 116.63614 104.34815 116.10946 C 101.7589 111.29155 97.641415 107.78111 92.63517 106.10387 C 91.955169 105.87604 90.680631 105.57581 89.60383 105.37317 C 89.252727 105.30719 88.98927 105.27139 88.703627 105.22899 z M 114.72168 150.69495 C 114.14555 150.69275 113.57321 150.7137 113.00602 150.758 C 106.23769 151.2863 100.18743 155.10346 96.701588 161.3868 C 99.737117 161.52201 102.92499 162.53923 105.5765 164.35561 C 107.22439 165.48446 108.56985 166.05374 109.86564 166.24025 C 109.99858 166.2594 111.29704 166.32814 112.91817 166.36324 C 114.53929 166.39834 116.60573 166.42277 118.71885 166.42577 C 122.17287 166.42977 124.12435 166.43875 125.3541 166.48675 C 126.58384 166.53473 127.17861 166.6375 127.69194 166.8149 C 129.64812 167.49092 131.35054 169.18535 132.12527 171.05701 C 132.45541 170.78897 132.82663 170.48547 133.22494 170.15268 C 133.69699 169.75829 134.17056 169.35659 134.53752 169.03905 C 134.7134 168.88686 134.85951 168.75723 134.97109 168.65664 C 134.97038 168.61964 134.97409 168.61186 134.97109 168.56466 C 134.9541 168.30169 134.89826 167.90209 134.81296 167.44948 C 134.6424 166.54426 134.35024 165.41018 134.02386 164.48481 C 133.11327 161.90311 132.43929 160.15773 130.1998 157.70124 C 127.99511 155.28294 126.52042 154.34263 124.14281 153.02762 C 122.44546 152.08889 121.18247 151.66429 119.98285 151.36364 C 118.2138 150.92027 116.45003 150.70195 114.72168 150.69495 z M 149.1294 163.81766 L 149.12991 163.81818 C 148.74762 163.84641 148.34417 163.97313 147.87573 164.19387 C 148.05073 164.11141 147.88517 164.19205 147.75687 164.28585 C 147.62857 164.37962 147.44581 164.51804 147.2215 164.69203 C 146.77289 165.03999 146.15403 165.53082 145.41696 166.12553 C 143.9428 167.31494 141.99055 168.92054 139.91859 170.64929 C 133.35992 176.12155 132.33723 177.05702 131.62969 178.08088 C 130.5419 179.655 129.14142 180.8683 127.60254 181.46361 C 126.58943 181.85552 125.42567 181.85383 116.69417 181.90493 C 111.85614 181.93323 109.43158 181.94803 108.09831 181.90493 C 107.43167 181.88337 107.03618 181.85466 106.67876 181.77006 C 106.32134 181.68549 105.98841 181.47047 105.85814 181.36801 C 104.8429 180.56943 104.68594 179.12833 105.44007 178.09638 C 105.56902 177.91993 106.00239 177.60485 106.35423 177.52225 C 106.70606 177.43972 107.09723 177.40963 107.77016 177.37963 C 109.11601 177.31976 111.56083 177.29515 116.27817 177.25095 L 125.80575 177.16103 L 126.45223 176.75641 C 127.60706 176.03372 128.00837 175.37852 128.08107 174.23718 C 128.16869 172.86111 127.70473 172.05018 126.33079 171.3092 C 126.1717 171.22339 126.16217 171.21289 125.99696 171.17639 C 125.83175 171.13995 125.50652 171.09835 124.91692 171.06735 C 123.7377 171.00533 121.52378 170.97612 117.23935 170.92472 C 114.10458 170.88714 111.84722 170.84415 110.29972 170.78985 C 109.52598 170.76265 108.93082 170.73276 108.48123 170.69786 C 108.03164 170.66297 107.78776 170.65673 107.44047 170.54387 C 105.98501 170.07084 104.82214 169.48624 103.41901 168.53004 C 100.57698 166.59327 98.144416 165.8667 95.182301 166.02993 C 92.232102 166.19249 89.796577 167.25617 87.452024 169.43437 L 86.123939 170.66892 A 0.97259728 0.97259728 0 0 1 85.477467 170.92834 L 82.287998 170.9795 L 80.049892 171.01412 L 80.00855 179.37382 L 79.965659 187.70974 L 82.100412 187.70974 L 85.213917 187.70974 A 0.97259728 0.97259728 0 0 1 85.49297 187.75057 L 91.235255 189.47553 C 92.806705 189.94719 94.384876 190.39815 95.655141 190.7447 C 96.925404 191.09123 97.966726 191.34125 98.166615 191.37205 C 98.382166 191.40523 99.408586 191.46951 100.706 191.50641 C 102.0034 191.54331 103.64278 191.56694 105.35997 191.56894 A 0.97259728 0.97259728 0 0 1 105.36204 191.56894 L 116.23683 191.60046 L 116.24045 191.60046 C 116.27005 191.59936 116.32105 191.58851 116.35775 191.58651 C 116.46063 191.58101 116.58194 191.57501 116.72517 191.57101 C 117.01163 191.56341 117.38405 191.55844 117.81865 191.55344 C 118.68787 191.54334 119.80198 191.53613 120.90838 191.52243 L 124.72882 191.47541 L 125.90859 190.90128 C 126.86128 190.43911 128.61257 189.02641 138.53728 180.33862 C 141.69039 177.57844 144.65883 174.97227 146.89697 172.99901 C 149.13515 171.02575 150.72786 169.60196 150.85952 169.4752 C 151.97206 168.40415 152.15285 168.02109 152.14885 166.90326 C 152.14464 165.72314 151.81535 165.06224 151.07243 164.52408 C 150.49062 164.10262 150.00385 163.87373 149.50612 163.82283 C 149.38168 163.80983 149.25681 163.80866 149.1294 163.81766 z M 71.52173 167.81845 L 71.52173 179.68956 L 71.52173 191.56274 L 73.395001 191.56274 L 75.266204 191.56274 L 75.266204 179.68956 L 75.266204 167.81845 L 73.395001 167.81845 L 71.52173 167.81845 z " /></g></svg>
