<?xml version="1.0" encoding="UTF-8" standalone="no"?>
<!-- Created with Inkscape (http://www.inkscape.org/) -->

<svg
   width="150mm"
   height="150mm"
   viewBox="0 0 150 150"
   version="1.1"
   id="svg5"
   xml:space="preserve"
   inkscape:version="1.2.2 (b0a8486541, 2022-12-01)"
   sodipodi:docname="treinamento.svg"
   xmlns:inkscape="http://www.inkscape.org/namespaces/inkscape"
   xmlns:sodipodi="http://sodipodi.sourceforge.net/DTD/sodipodi-0.dtd"
   xmlns="http://www.w3.org/2000/svg"
   xmlns:svg="http://www.w3.org/2000/svg"><sodipodi:namedview
     id="namedview7"
     pagecolor="#ffffff"
     bordercolor="#000000"
     borderopacity="0.25"
     inkscape:showpageshadow="2"
     inkscape:pageopacity="0.0"
     inkscape:pagecheckerboard="0"
     inkscape:deskcolor="#d1d1d1"
     inkscape:document-units="mm"
     showgrid="false"
     showguides="false"
     inkscape:zoom="0.33575172"
     inkscape:cx="455.69387"
     inkscape:cy="424.42076"
     inkscape:window-width="1366"
     inkscape:window-height="700"
     inkscape:window-x="0"
     inkscape:window-y="32"
     inkscape:window-maximized="1"
     inkscape:current-layer="layer1" /><defs
     id="defs2" /><g
     inkscape:label="Camada 1"
     inkscape:groupmode="layer"
     id="layer1"
     transform="translate(-36.824623,-73.31311)"><path
       id="path280"
       style="fill:#39474e;fill-opacity:1;stroke-width:0.304985"
       d="M 111.8247 73.31311 A 75 75 0 0 0 36.824623 148.31318 A 75 75 0 0 0 111.8247 223.31326 A 75 75 0 0 0 186.82477 148.31318 A 75 75 0 0 0 111.8247 73.31311 z M 155.23497 103.31438 C 155.92367 103.30259 156.59836 103.36496 157.21366 103.71539 C 159.3652 104.64236 160.8959 106.60025 161.70124 108.75694 L 161.70124 149.66866 C 161.55678 151.11577 162.04424 152.68468 161.35656 154.03583 C 160.48057 156.25406 158.47536 157.93196 156.2318 158.62677 C 148.47264 158.71729 140.70659 158.68118 132.94537 158.78696 C 133.19821 159.67933 132.58602 160.8938 133.49986 161.52478 C 136.69474 162.69039 138.49962 166.58095 137.64379 169.88344 C 136.85923 173.27122 133.25274 175.51689 129.86494 175.07589 C 126.75764 174.77702 124.17471 172.13213 123.75937 169.07057 C 123.22368 165.91224 125.18117 162.66151 128.10587 161.44985 C 128.98208 160.79749 128.29559 159.63379 128.63039 158.75906 C 121.30429 158.72104 113.978 158.68787 106.65189 158.65157 C 105.15206 158.83919 103.76581 158.05827 102.59529 157.20411 C 101.09005 156.18233 100.4246 154.45366 99.571181 152.93151 C 99.239421 152.33791 99.391897 153.99508 99.271457 154.38361 C 99.231957 165.36419 99.259371 176.34825 99.253371 187.32992 C 99.46259 189.27633 98.353961 191.15691 96.814243 192.27846 C 95.252095 193.50224 93.176265 193.14192 91.332407 193.28046 C 86.398402 193.34186 81.461977 193.29932 76.528659 193.29132 C 74.426362 192.82568 72.383204 191.20178 71.953745 189.00579 C 71.617705 182.22099 71.805091 175.4197 71.754791 168.62771 C 70.677822 168.61951 69.600949 168.61407 68.52398 168.60807 C 65.999483 168.90753 63.314107 167.52514 62.321258 165.14058 C 61.874158 163.75516 61.953031 162.38138 61.913531 160.92482 C 61.968691 156.06577 61.810767 151.14491 62.136256 146.33449 C 62.686876 142.02971 66.014537 138.35332 70.036033 136.89217 C 72.88859 135.99558 75.931226 136.34789 78.875803 136.22297 C 79.694992 136.25568 80.459763 136.27083 79.375514 135.69587 C 76.907717 134.12154 74.891846 131.7599 74.061627 128.92212 C 73.253957 125.97937 73.378557 122.70209 74.689495 119.91802 C 76.915553 115.18843 82.488166 112.38429 87.612221 113.37681 C 91.650937 114.07581 95.265194 117.04111 96.740862 120.91124 C 98.080791 124.20682 97.764821 128.06314 95.985353 131.13232 C 94.847764 133.27655 92.942845 134.84103 90.963437 136.17542 C 92.403006 136.17942 93.842985 136.18224 95.282554 136.18524 C 96.917282 136.44664 98.291028 135.36945 99.726727 134.7967 C 99.760727 127.19745 99.792645 119.59787 99.825945 111.9986 C 99.970135 110.61978 99.49727 109.12182 100.182 107.84175 C 101.11377 105.77768 102.95897 104.27501 104.99669 103.36967 C 120.54178 103.37132 136.087 103.36674 151.63209 103.37174 L 151.63209 103.37122 C 152.14586 103.36532 152.65984 103.36127 153.17359 103.35727 C 153.84371 103.4119 154.54626 103.32617 155.23497 103.31438 z M 119.74514 107.81953 C 115.58761 107.83331 111.42998 107.84617 107.27304 107.92547 C 106.09981 107.72776 104.63652 108.29075 104.41895 109.58118 C 104.15204 117.06339 104.26477 124.55691 104.18537 132.04389 C 105.61791 130.80139 107.05488 129.55657 108.3324 128.15111 C 110.22606 126.29082 111.53295 123.93734 113.40496 122.06259 C 114.65678 120.65547 116.71914 120.25833 118.477 120.81615 C 120.29402 121.51013 122.16165 122.27381 123.65808 123.55035 C 125.5373 125.14093 125.83942 128.01083 124.71952 130.12721 C 120.12593 138.10936 112.83682 144.36672 104.58121 148.34574 C 104.0156 148.76267 104.24501 149.67293 104.19881 150.31409 C 104.1483 151.63385 104.2561 153.45118 105.7398 153.94746 C 108.27922 154.23904 110.85599 154.21221 113.41375 154.25081 C 126.94527 154.20443 140.47836 154.30848 154.00868 154.08751 C 155.11678 154.20688 156.56683 154.00445 156.9961 152.80231 C 157.30764 150.48612 157.16662 148.11466 157.21572 145.77535 C 157.24592 134.38955 157.29739 123.0011 157.1718 111.61672 C 157.11365 110.43297 157.33247 108.7579 156.02665 108.16266 C 154.83712 107.7655 153.53658 107.98998 152.30181 107.88568 C 141.45014 107.75898 130.5974 107.85853 119.74514 107.81953 z M 85.708461 117.66854 C 85.49488 117.66593 85.281203 117.67094 85.068707 117.68301 C 83.114099 117.68904 81.196634 118.59209 79.915533 120.06168 C 77.611415 122.54432 77.319336 126.545 79.148655 129.37584 C 80.444183 131.82641 83.331608 133.02236 86.012835 132.82266 C 88.833592 132.76321 91.397639 130.84141 92.447068 128.25498 C 93.868946 125.06323 92.756502 121.01278 89.908205 118.99508 C 88.703383 118.0762 87.203527 117.68683 85.708461 117.66854 z M 139.34705 118.0866 C 140.85165 118.08554 142.35648 118.08924 143.86098 118.10779 C 145.46814 118.20312 147.10165 118.02925 148.69015 118.31346 C 150.60949 118.62481 150.63992 121.75282 148.85603 122.2786 C 144.80039 122.58266 140.72268 122.53334 136.65626 122.50804 C 134.27425 122.44169 131.88204 122.51735 129.50785 122.32356 C 127.67867 122.23099 127.27216 119.47757 128.67535 118.54136 C 130.64061 117.86668 132.78702 118.24177 134.83363 118.09384 C 136.3382 118.09324 137.84245 118.08767 139.34705 118.0866 z M 138.27321 124.66553 C 140.04827 124.76415 141.84493 124.60194 143.60467 124.88102 C 145.54375 125.02043 145.77579 128.0811 144.11161 128.79448 C 141.72804 129.14933 139.28267 129.09654 136.8702 129.10454 C 134.43433 129.06451 131.988 129.12061 129.56056 128.9278 C 127.71157 128.85565 127.24985 126.10772 128.65829 125.13837 C 130.34463 124.48184 132.22681 124.81693 134.0006 124.66967 L 134.0006 124.66915 C 135.42477 124.66606 136.84904 124.65753 138.27321 124.66553 z M 116.73086 124.99988 C 116.34712 125.07797 116.09145 125.68404 115.80637 125.96468 C 113.73515 128.99819 111.38514 131.87026 108.51999 134.19311 C 105.25309 136.90929 101.48812 139.0576 97.451413 140.53485 C 90.265841 140.59352 83.080681 140.65185 75.895106 140.71055 C 74.274408 140.84886 72.498616 140.35305 71.030287 141.26814 C 68.787649 142.18552 67.278898 144.26547 66.433668 146.46833 C 66.402468 151.1535 66.367566 155.83865 66.334966 160.52381 C 66.456496 161.64685 66.037032 162.84596 66.589731 163.89621 C 68.26378 164.4505 70.039258 163.96776 71.750657 164.24968 C 71.785556 159.59816 71.694653 154.94501 71.821453 150.29446 C 71.998553 149.12454 71.531361 147.71183 72.45914 146.77219 C 73.532009 145.58598 75.785193 146.19078 76.033082 147.79849 C 76.317652 160.38059 76.166515 172.97198 76.206715 185.55794 C 76.347425 186.60489 75.841995 187.84319 76.658884 188.70917 C 78.855312 188.98226 81.070967 188.81913 83.277085 188.85903 L 83.277085 169.79869 C 83.079135 169.01514 83.564446 168.30254 84.232065 167.92336 C 85.367554 166.92922 86.967097 167.75784 87.729526 168.80237 L 87.729526 188.8611 C 88.796075 188.8611 89.862265 188.859 90.928814 188.858 C 92.217403 188.72204 93.70114 189.21203 94.799379 188.30041 L 94.799379 166.06507 C 94.779779 160.24132 94.836624 154.4125 94.776124 148.59224 C 94.903834 147.37112 96.254473 146.80738 97.266412 146.41511 C 105.47173 143.86472 112.87391 138.78034 118.14627 131.98601 C 119.18516 130.46944 120.55167 129.07653 120.99933 127.24263 C 119.88313 126.19888 118.48508 125.51549 117.0435 125.04639 L 117.00784 125.0345 L 116.90346 125.00143 C 116.84295 124.98855 116.78568 124.98872 116.73086 124.99988 z M 130.94498 165.40361 C 130.8376 165.39944 130.72884 165.40294 130.6189 165.41446 C 130.33706 165.43011 130.06368 165.49155 129.80138 165.59637 C 128.04817 166.17921 127.46977 168.77677 128.94562 169.95269 C 130.24868 171.33064 132.86333 170.63024 133.30762 168.7941 C 133.82848 167.2308 132.55558 165.46619 130.94498 165.40361 z " /></g></svg>
