<?xml version="1.0" encoding="UTF-8" standalone="no"?>
<!-- Created with Inkscape (http://www.inkscape.org/) -->

<svg
   width="150mm"
   height="150mm"
   viewBox="0 0 150 150"
   version="1.1"
   id="svg5"
   xml:space="preserve"
   inkscape:version="1.2.2 (b0a8486541, 2022-12-01)"
   sodipodi:docname="consultoria.svg"
   xmlns:inkscape="http://www.inkscape.org/namespaces/inkscape"
   xmlns:sodipodi="http://sodipodi.sourceforge.net/DTD/sodipodi-0.dtd"
   xmlns="http://www.w3.org/2000/svg"
   xmlns:svg="http://www.w3.org/2000/svg"><sodipodi:namedview
     id="namedview7"
     pagecolor="#ffffff"
     bordercolor="#000000"
     borderopacity="0.25"
     inkscape:showpageshadow="2"
     inkscape:pageopacity="0.0"
     inkscape:pagecheckerboard="0"
     inkscape:deskcolor="#d1d1d1"
     inkscape:document-units="mm"
     showgrid="false"
     showguides="false"
     inkscape:zoom="0.23741232"
     inkscape:cx="-193.75574"
     inkscape:cy="128.46848"
     inkscape:window-width="1366"
     inkscape:window-height="700"
     inkscape:window-x="0"
     inkscape:window-y="32"
     inkscape:window-maximized="1"
     inkscape:current-layer="layer1" /><defs
     id="defs2" /><g
     inkscape:label="Camada 1"
     inkscape:groupmode="layer"
     id="layer1"
     transform="translate(-36.824623,-73.31311)"><path
       id="path1367"
       style="fill:#39474e;fill-opacity:1;stroke-width:0.304985"
       d="m 111.8247,73.31311 c -41.421414,-4.3e-5 -75.000116,33.57866 -75.000077,75.00007 -4.4e-5,41.42142 33.578659,75.00012 75.000077,75.00008 41.42141,4e-5 75.00011,-33.57867 75.00007,-75.00008 4e-5,-41.42141 -33.57866,-75.000109 -75.00007,-75.00007 z"
       sodipodi:nodetypes="ccccc" /><path
       id="path1361"
       style="display:inline;fill:#ffffff;stroke-width:2.06378;stroke-linecap:round;stroke-linejoin:round"
       d="m 111.97714,93.436429 c -0.44035,0.0014 -0.88618,0.01 -1.33738,0.02481 -5.60394,0.18444 -9.37311,1.11832 -14.282853,3.539836 -10.487254,5.172395 -17.960774,15.966795 -19.041732,27.502205 -0.162719,1.73638 -0.192416,1.80146 -1.218014,2.65875 -0.578237,0.48333 -1.292139,1.32933 -1.586466,1.87998 -0.52085,0.97428 -0.535368,1.19659 -0.535368,8.28373 0,6.64795 0.03913,7.35601 0.445451,8.11888 1.159788,2.1775 2.823871,3.18613 5.285465,3.20343 1.889825,0.0133 3.035897,-0.42571 4.231783,-1.62161 1.548988,-1.54904 1.608339,-1.90129 1.613339,-9.7131 l 0.0046,-7.05694 -0.631486,-1.26814 c -0.395427,-0.7935 -0.978827,-1.50352 -1.559078,-1.89755 l -0.927075,-0.62942 0.143144,-1.55235 c 0.899128,-9.73012 7.215733,-18.75855 16.276009,-23.26473 6.699931,-3.33227 14.624331,-3.935601 21.841041,-1.662955 10.43556,3.286305 18.37438,12.462845 20.12591,23.263185 0.49733,3.06668 0.4892,3.1211 -0.56689,3.85093 -0.57882,0.4 -1.15258,1.11488 -1.55495,1.93735 l -0.6382,1.30379 0.0382,7.47862 c 0.0432,8.50536 0.28285,7.5685 -2.26963,8.87026 -2.51984,1.2851 -5.35643,2.17117 -8.68629,2.71353 l -2.22622,0.36224 -0.80822,-0.70952 c -0.99143,-0.87048 -2.12104,-1.06603 -5.44153,-0.94309 -2.7355,0.10125 -3.42133,0.37771 -4.23178,1.70688 -1.01047,1.65723 -0.46087,3.65377 1.30224,4.72891 h 5.2e-4 c 0.6208,0.37863 1.22187,0.44991 3.7977,0.45062 3.22888,9.6e-4 3.63205,-0.0988 4.81986,-1.19476 0.54583,-0.50362 1.05706,-0.70015 2.14871,-0.82579 4.56571,-0.52556 9.62546,-2.20441 12.84004,-4.26072 1.33646,-0.85493 1.34367,-0.85661 2.13062,-0.45217 1.15215,0.59215 3.84313,0.52623 5.08754,-0.12454 1.1105,-0.58074 2.0303,-1.51241 2.65876,-2.69235 0.40644,-0.76287 0.44545,-1.47093 0.44545,-8.11888 0,-7.08714 -0.0146,-7.30945 -0.53537,-8.28373 -0.29433,-0.55065 -1.00822,-1.39665 -1.58647,-1.87999 -1.02559,-0.85729 -1.05529,-0.92237 -1.21801,-2.65875 -0.99687,-10.63822 -7.35178,-20.6079 -16.71836,-26.228381 -5.6015,-3.361222 -11.02988,-4.860056 -17.6351,-4.838465 z m 0.0925,10.979171 c -0.3933,0.003 -0.79089,0.0142 -1.19166,0.0336 -11.200363,0.54168 -18.776893,6.90962 -21.219889,17.83354 -0.62827,2.80939 -0.548471,10.57475 0.14056,13.67203 1.413598,6.3544 3.767371,11.3178 8.176761,17.24185 2.278318,3.06089 2.537928,3.52286 2.881478,5.12475 0.52005,2.42488 -0.79014,4.79559 -3.379122,6.11332 -0.600818,0.30581 -2.10514,0.95473 -3.342948,1.44177 -4.208714,1.65596 -12.041114,5.86904 -16.339054,8.78913 -2.636105,1.79102 -5.999862,5.09602 -6.87865,6.75824 -0.35935,0.67971 -0.86623,2.06672 -1.12603,3.0825 -1.727166,6.75317 1.357715,11.86315 8.97568,14.86835 4.4877,1.77033 11.583925,3.09198 19.325952,3.59926 v 5.2e-4 c 4.303962,0.28211 22.371252,0.289 26.862962,0.0103 12.40836,-0.76983 20.80027,-2.79627 25.21086,-6.088 2.92896,-2.18596 4.16289,-4.7552 4.15789,-8.66097 -0.007,-6.07007 -2.48704,-9.96269 -9.18962,-14.42134 -2.69864,-1.79516 -8.76126,-4.78383 -13.16302,-6.48901 -4.23111,-1.63907 -6.0529,-2.55582 -7.27708,-3.66179 -1.35172,-1.22118 -1.64899,-1.92054 -1.64899,-3.87935 v -1.6831 l -3.64164,-0.003 c -3.31177,-0.002 -3.74954,-0.0529 -4.83537,-0.55966 -1.33599,-0.62345 -2.83911,-2.15137 -3.40806,-3.46439 -0.22277,-0.51412 -0.3763,-1.5516 -0.3793,-2.54041 -0.004,-2.04819 0.73993,-3.67927 2.27893,-4.9966 1.55453,-1.33061 2.92854,-1.62779 7.07605,-1.53169 3.28463,0.0762 3.58529,0.12283 4.7594,0.74001 l 1.25316,0.65888 2.19831,-0.48008 c 1.20885,-0.26384 2.23392,-0.47956 2.27842,-0.47956 0.42772,0 2.86569,-7.00938 3.5295,-10.14821 0.55156,-2.60795 0.73352,-8.16471 0.35811,-10.93009 -1.69691,-12.50005 -10.25116,-20.05465 -22.44359,-19.95072 z" /></g></svg>
