<?xml version="1.0" encoding="UTF-8" standalone="no"?>
<!-- Created with Inkscape (http://www.inkscape.org/) -->

<svg
   width="150mm"
   height="150mm"
   viewBox="0 0 150 150"
   version="1.1"
   id="svg5"
   xml:space="preserve"
   inkscape:version="1.2.2 (b0a8486541, 2022-12-01)"
   sodipodi:docname="treinamento.svg"
   xmlns:inkscape="http://www.inkscape.org/namespaces/inkscape"
   xmlns:sodipodi="http://sodipodi.sourceforge.net/DTD/sodipodi-0.dtd"
   xmlns="http://www.w3.org/2000/svg"
   xmlns:svg="http://www.w3.org/2000/svg"><sodipodi:namedview
     id="namedview7"
     pagecolor="#ffffff"
     bordercolor="#000000"
     borderopacity="0.25"
     inkscape:showpageshadow="2"
     inkscape:pageopacity="0.0"
     inkscape:pagecheckerboard="0"
     inkscape:deskcolor="#d1d1d1"
     inkscape:document-units="mm"
     showgrid="false"
     showguides="false"
     inkscape:zoom="0.33575172"
     inkscape:cx="-10.42437"
     inkscape:cy="147.43037"
     inkscape:window-width="1366"
     inkscape:window-height="700"
     inkscape:window-x="0"
     inkscape:window-y="32"
     inkscape:window-maximized="1"
     inkscape:current-layer="layer1" /><defs
     id="defs2" /><g
     inkscape:label="Camada 1"
     inkscape:groupmode="layer"
     id="layer1"
     transform="translate(-36.824623,-73.31311)"><path
       id="path1692"
       style="fill:#39474e;fill-opacity:1;stroke-width:0.304985"
       d="m 111.8247,73.31311 c -41.421414,-4.3e-5 -75.000116,33.57866 -75.000077,75.00007 -4.4e-5,41.42142 33.578659,75.00012 75.000077,75.00008 41.42141,4e-5 75.00011,-33.57867 75.00007,-75.00008 4e-5,-41.42141 -33.57866,-75.000109 -75.00007,-75.00007 z"
       sodipodi:nodetypes="ccccc" /><path
       id="path1689"
       style="display:inline;fill:#ffffff;stroke-width:2.19098;stroke-linecap:round;stroke-linejoin:round"
       d="m 155.23497,103.31438 c -0.68871,0.0118 -1.39126,0.0975 -2.06138,0.0429 -0.51375,0.004 -1.02773,0.008 -1.5415,0.0139 v 5.2e-4 c -15.54508,-0.005 -31.09033,-4.2e-4 -46.6354,-0.002 -2.03772,0.90534 -3.88292,2.40801 -4.81469,4.47208 -0.684733,1.28007 -0.211865,2.77804 -0.356055,4.15685 -0.0333,7.59927 -0.06522,15.19885 -0.09922,22.7981 -1.435698,0.57275 -2.809447,1.64994 -4.444173,1.38854 -1.439568,-0.003 -2.879549,-0.006 -4.319117,-0.01 1.979406,-1.33439 3.884328,-2.89887 5.021916,-5.0431 1.779466,-3.06918 2.095437,-6.92551 0.755509,-10.22108 -1.475666,-3.87013 -5.089929,-6.83543 -9.128641,-7.53443 -5.12405,-0.99251 -10.69667,1.81162 -12.922726,6.54121 -1.310936,2.78406 -1.435538,6.06135 -0.627868,9.0041 0.830218,2.83778 2.846093,5.19942 5.313887,6.77375 1.084248,0.57495 0.319477,0.55981 -0.499711,0.5271 -2.944574,0.12492 -5.987216,-0.22738 -8.83977,0.6692 -4.021492,1.46115 -7.349157,5.13755 -7.899777,9.44232 -0.325488,4.81042 -0.167565,9.73128 -0.222725,14.59033 0.0395,1.45656 -0.03937,2.83034 0.407727,4.21576 0.992848,2.38456 3.678228,3.76695 6.202722,3.46749 1.076968,0.006 2.153843,0.0114 3.230811,0.0196 0.0503,6.79198 -0.137086,13.59329 0.198954,20.37808 0.429458,2.19599 2.47262,3.81989 4.574914,4.28553 4.933314,0.008 9.869748,0.0505 14.803748,-0.0109 1.843856,-0.13854 3.91969,0.22178 5.481836,-1.002 1.539716,-1.12155 2.648346,-3.00213 2.439128,-4.94854 0.006,-10.98166 -0.02141,-21.96574 0.01809,-32.94631 0.12044,-0.38853 -0.03204,-2.0457 0.299724,-1.4521 0.853417,1.52214 1.518867,3.25082 3.024107,4.2726 1.17051,0.85416 2.55677,1.63508 4.0566,1.44746 7.3261,0.0363 14.65241,0.0695 21.9785,0.10749 -0.3348,0.87473 0.35169,2.03843 -0.52452,2.69079 -2.92469,1.21166 -4.88219,4.4624 -4.3465,7.62072 0.41534,3.06156 2.99827,5.70645 6.10557,6.00532 3.3878,0.441 6.99429,-1.80467 7.77885,-5.19245 0.85583,-3.30248 -0.94905,-7.19305 -4.14393,-8.35866 -0.91384,-0.63098 -0.30165,-1.84545 -0.55449,-2.73782 7.76121,-0.10578 15.52728,-0.0697 23.28643,-0.16019 2.24356,-0.69481 4.24877,-2.37271 5.12476,-4.59094 0.68768,-1.35115 0.20022,-2.92007 0.34468,-4.36717 v -40.91172 c -0.80534,-2.15669 -2.33605,-4.11458 -4.48758,-5.04155 -0.6153,-0.35043 -1.28999,-0.4128 -1.97869,-0.40101 z m -35.48983,4.50515 c 10.85225,0.039 21.70501,-0.0606 32.55667,0.0661 1.23477,0.1043 2.53531,-0.12018 3.72484,0.27698 1.30582,0.59524 1.087,2.27031 1.14515,3.45406 0.12559,11.38436 0.0741,22.77285 0.0439,34.15863 -0.0491,2.33931 0.0919,4.71078 -0.21962,7.02696 -0.42927,1.20214 -1.87932,1.40457 -2.98742,1.2852 -13.5303,0.22097 -27.06343,0.11692 -40.59493,0.1633 -2.55776,-0.0386 -5.13454,-0.0118 -7.67395,-0.30335 -1.4837,-0.49627 -1.5915,-2.31361 -1.54099,-3.63337 0.0462,-0.64115 -0.18321,-1.55142 0.3824,-1.96835 8.2556,-3.97902 15.54472,-10.23638 20.13831,-18.21853 1.1199,-2.11637 0.81778,-4.98628 -1.06144,-6.57686 -1.49643,-1.27654 -3.36406,-2.04022 -5.18108,-2.7342 -1.75785,-0.55782 -3.82022,-0.16068 -5.07204,1.24644 -1.87201,1.87475 -3.1789,4.22823 -5.07256,6.08852 -1.27752,1.40546 -2.71449,2.65028 -4.14703,3.89278 0.0794,-7.48697 -0.0333,-14.98051 0.23358,-22.46271 0.21757,-1.29043 1.68086,-1.85342 2.85409,-1.65571 4.15693,-0.0793 8.31458,-0.0922 12.4721,-0.10594 z m -34.036679,9.84901 c 1.495064,0.0183 2.994923,0.40766 4.199744,1.32654 2.848294,2.01769 3.960739,6.06815 2.538863,9.2599 -1.049428,2.58642 -3.613479,4.50823 -6.434233,4.56768 -2.681224,0.1997 -5.568654,-0.99625 -6.86418,-3.44682 -1.829318,-2.83084 -1.537238,-6.83152 0.766878,-9.31416 1.2811,-1.46959 3.198568,-2.37264 5.153174,-2.37867 0.212495,-0.0121 0.426173,-0.0171 0.639754,-0.0145 z m 53.638589,0.41806 c -1.5046,10e-4 -3.00885,0.007 -4.51342,0.007 -2.04661,0.14793 -4.19302,-0.22716 -6.15828,0.44752 -1.40319,0.93621 -0.99667,3.68963 0.8325,3.7822 2.37419,0.19378 4.7664,0.11813 7.14841,0.18448 4.06641,0.0253 8.14413,0.0746 12.19977,-0.22944 1.78389,-0.52578 1.75345,-3.65379 -0.16588,-3.96514 -1.5885,-0.28421 -3.22201,-0.11034 -4.82917,-0.20567 -1.50449,-0.0185 -3.00933,-0.0222 -4.51393,-0.0212 z m -1.07384,6.57893 c -1.42417,-0.008 -2.84844,5.3e-4 -4.27261,0.004 v 5.2e-4 c -1.77378,0.14726 -3.65597,-0.18783 -5.34231,0.4687 -1.40843,0.96935 -0.94671,3.71728 0.90227,3.78943 2.42744,0.19281 4.87377,0.13671 7.30964,0.17674 2.41246,-0.008 4.85785,0.0448 7.24141,-0.31006 1.66418,-0.71338 1.43214,-3.77405 -0.50694,-3.91346 -1.75974,-0.27908 -3.5564,-0.11687 -5.33146,-0.21549 z m -21.54235,0.33435 c 0.0548,-0.0112 0.11209,-0.0113 0.1726,0.002 l 0.10438,0.0331 0.0357,0.0119 c 1.44158,0.4691 2.83963,1.1525 3.95583,2.19624 -0.44766,1.8339 -1.81417,3.22682 -2.85306,4.74338 -5.27235,6.79433 -12.67455,11.87871 -20.879858,14.4291 -1.011938,0.39227 -2.362578,0.95601 -2.490288,2.17713 0.0605,5.82025 0.0037,11.64909 0.02326,17.47283 v 22.23534 c -1.098238,0.91162 -2.581977,0.42163 -3.870565,0.55759 -1.066548,0.001 -2.13274,0.003 -3.199288,0.003 v -20.05873 c -0.762428,-1.04453 -2.361973,-1.87315 -3.497461,-0.87901 -0.667618,0.37918 -1.15293,1.09178 -0.95498,1.87533 v 19.06034 c -2.206116,-0.0399 -4.421775,0.12323 -6.618201,-0.14986 -0.816888,-0.86598 -0.311459,-2.10428 -0.452169,-3.15123 -0.0402,-12.58595 0.110937,-25.17737 -0.173633,-37.75945 -0.247888,-1.60771 -2.501074,-2.21251 -3.573942,-1.0263 -0.927778,0.93964 -0.460587,2.35235 -0.637687,3.52227 -0.1268,4.65054 -0.0359,9.3037 -0.0708,13.95522 -1.711398,-0.28192 -3.486878,0.20082 -5.160926,-0.35347 -0.552698,-1.05025 -0.133235,-2.24936 -0.254765,-3.3724 0.0326,-4.68516 0.0675,-9.37031 0.0987,-14.05548 0.84523,-2.20285 2.353983,-4.28282 4.596619,-5.20019 1.468328,-0.91509 3.244123,-0.41928 4.864819,-0.55759 7.185568,-0.0587 14.370743,-0.11703 21.556307,-0.1757 4.036708,-1.47725 7.801678,-3.62556 11.068578,-6.34174 2.86515,-2.32284 5.21516,-5.19493 7.28638,-8.22843 0.28508,-0.28064 0.54075,-0.88671 0.92449,-0.9648 z m 14.21412,40.40373 c 1.61059,0.0626 2.8835,1.8272 2.36264,3.39049 -0.44429,1.83614 -3.05895,2.53654 -4.362,1.15859 -1.47585,-1.17592 -0.89745,-3.77348 0.85576,-4.35632 0.2623,-0.10482 0.53568,-0.16626 0.81752,-0.18191 0.10994,-0.0115 0.2187,-0.015 0.32608,-0.0109 z" /></g></svg>
